STARTFONT 2.1
FONT -Screwtapello-Topaz Unicode KS13-Bold-R-Regular--16-16-75-75-c-80-iso10646-1
SIZE 16 75 75
FONTBOUNDINGBOX 8 16 0 -2
STARTPROPERTIES 19
ADD_STYLE_NAME ""
AVERAGE_WIDTH 80
CAP_HEIGHT 14
CHARSET_ENCODING "1"
CHARSET_REGISTRY "iso10646"
FAMILY_NAME "Topaz Unicode KS13"
FONT_ASCENT 14
FONT_DESCENT 2
FONT_VERSION "1.0"
FOUNDRY "Screwtapello"
PIXEL_SIZE 16
POINT_SIZE 16
RESOLUTION_X 75
RESOLUTION_Y 75
SETWIDTH_NAME "Regular"
SLANT "R"
SPACING "C"
WEIGHT_NAME "Bold"
X_HEIGHT 10
ENDPROPERTIES
CHARS 1
STARTCHAR U+0020
ENCODING 32
SWIDTH 1000 0
DWIDTH 8 0
BBX 0 0 0 0
BITMAP
ENDCHAR
ENDFONT
